<svg xmlns="http://www.w3.org/2000/svg" width="75" height="75" viewBox="0 0 75 75">
  <g id="Group_87" data-name="Group 87" transform="translate(-95 -14)">
    <circle id="Ellipse_173" data-name="Ellipse 173" cx="37.5" cy="37.5" r="37.5" transform="translate(95 14)" fill="#fff"/>
    <g id="Group_86" data-name="Group 86" transform="translate(-13.018 -193.784)">
      <path id="Path_8414" data-name="Path 8414" d="M224.819,263.262a27.466,27.466,0,0,0-44.316,0Z" transform="translate(-57.144 -33.917)" fill="#e50019" fill-rule="evenodd"/>
      <path id="Path_8415" data-name="Path 8415" d="M178.08,362.706a27.469,27.469,0,0,0,22.727-42.893H155.353a27.469,27.469,0,0,0,22.727,42.893Z" transform="translate(-32.563 -89.665)" fill="#002581" fill-rule="evenodd"/>
      <path id="Path_8416" data-name="Path 8416" d="M291.482,267.062l.732,2.266,2.381,0-1.929,1.4.74,2.264-1.924-1.4-1.924,1.4.74-2.264-1.929-1.4,2.381,0,.732-2.266Z" transform="translate(-145.853 -46.283)" fill="#fe0" fill-rule="evenodd"/>
      <path id="Path_8417" data-name="Path 8417" d="M297.779,341.053c-1.862.032-2.009,1.529-1.27,3.507.434,2.463.325,7.672.364,11.558h1.818c.1-4.551.071-10.54.425-11.452.917-2.791.171-3.633-1.337-3.613Z" transform="translate(-152.206 -107.133)" fill="#fff" fill-rule="evenodd"/>
      <path id="Path_8418" data-name="Path 8418" d="M247.978,392.069a2.651,2.651,0,0,0,2.078-1.2,7.319,7.319,0,0,1,1.066-2.917,2.865,2.865,0,0,1,1.572-1.785l3.463-1.092.027,1.838a18.581,18.581,0,0,1-5.967,4.076,7.143,7.143,0,0,0-.839,1.039,8.389,8.389,0,0,0-.3.839c-.02.139-.165.187-.233.04-.04-.24-.013-.393-.053-.633-.209.018-.517.009-.726.027a.125.125,0,0,1-.087-.233Z" transform="translate(-112.578 -143.337)" fill="#fff" fill-rule="evenodd"/>
      <path id="Path_8419" data-name="Path 8419" d="M272.573,399.335a.426.426,0,1,0-.426-.426.426.426,0,0,0,.426.426Z" transform="translate(-132.512 -154.362)" fill="#002581" fill-rule="evenodd"/>
      <path id="Path_8420" data-name="Path 8420" d="M281.014,381.306q.013.959.027,1.918c2.265.306,3.516,1.373,3.65,3.277.008,3.811-7,3.205-9.138,4.849a4.055,4.055,0,0,0-1.945,4.742,5.1,5.1,0,0,0,3.943,3.09q-.027-.946-.053-1.892c-2.157-1.269-2.239-3.194-.453-4.129,1.757-.841,4.014-1.078,6.047-1.732,2.765-1.064,4.268-3.176,3.623-6.367-.565-2.185-2.841-3.6-5.7-3.756Z" transform="translate(-133.587 -140.237)" fill="#fff" fill-rule="evenodd"/>
      <path id="Path_8421" data-name="Path 8421" d="M300.328,448.4l1.532-.306-.04,9.111-1.332.533-.16-9.338Z" transform="translate(-155.688 -195.16)" fill="#fff" fill-rule="evenodd"/>
      <path id="Path_8422" data-name="Path 8422" d="M302.812,517.615l-1.132.679.16,7.246h.959l.013-7.926Z" transform="translate(-156.8 -252.337)" fill="#fff" fill-rule="evenodd"/>
      <path id="Path_8423" data-name="Path 8423" d="M294.622,477.714q.014.8.027,1.6c.878.517,1.383,1.165.946,2.145-.557,1.034-4.524,1.456-5.008,2.864-.4,1.492-.065,2.508,1.132,2.97l-.013-1.785a1.661,1.661,0,0,1,1.385-1.252c2.168-.284,4.3-1.172,4.662-2.944.229-2.277-1.206-3.137-3.131-3.6Z" transform="translate(-147.544 -219.522)" fill="#fff" fill-rule="evenodd"/>
      <path id="Path_8424" data-name="Path 8424" d="M312.785,532.406q.006.433.013.866a3.014,3.014,0,0,1,1.585,1.758c.057.211.445.208.44-.173a2.881,2.881,0,0,0-2.038-2.451Z" transform="translate(-165.933 -264.501)" fill="#fff" fill-rule="evenodd"/>
      <path id="Path_8425" data-name="Path 8425" d="M116.535,299.5a34.5,34.5,0,0,1,7.336-45.586l.223.277a34.146,34.146,0,0,0-7.26,45.116Zm58.241-.436-.3-.188a34.147,34.147,0,0,0-7.935-45l.218-.28a34.5,34.5,0,0,1,8.018,45.471Zm-57.108-.76a32.9,32.9,0,0,1,7.511-43.388l.22.279a32.548,32.548,0,0,0-7.43,42.919Zm55.752-.087-.3-.188a32.548,32.548,0,0,0-7.564-42.9l.219-.28a32.9,32.9,0,0,1,7.646,43.364Zm-54.686-.532a31.671,31.671,0,0,1,7.172-41.773l.22.279a31.316,31.316,0,0,0-7.092,41.3Zm53.641-.121-.3-.188a31.315,31.315,0,0,0-7.277-41.272l.219-.28a31.67,31.67,0,0,1,7.36,41.74Zm-52.4-.711a30.179,30.179,0,0,1,6.889-39.8l.22.279a29.824,29.824,0,0,0-6.808,39.327Zm51.137-.079-.3-.188a29.824,29.824,0,0,0-6.931-39.306l.219-.28a30.179,30.179,0,0,1,7.013,39.774Z" transform="translate(0 -35.208)" fill="#002581"/>
      <path id="Path_8426" data-name="Path 8426" d="M215.367,232.521l.85,1.823.762-.355a1.3,1.3,0,0,0,.749-.687.907.907,0,0,0-.067-.692,1,1,0,0,0-.509-.5,1.128,1.128,0,0,0-.991.044l-.793.37Zm-.887-1.9.758,1.625.668-.312a1.352,1.352,0,0,0,.612-.494.745.745,0,0,0,.02-.749.833.833,0,0,0-.482-.467,1.475,1.475,0,0,0-1.077.165l-.5.232Zm.918,4.444-2-4.28,2.1-.978a1.73,1.73,0,0,1,1.342-.144,1.046,1.046,0,0,1,.623.545.948.948,0,0,1,.05.737,1.4,1.4,0,0,1-.486.641,1.686,1.686,0,0,1,.963.005,1.006,1.006,0,0,1,.6.551,1.132,1.132,0,0,1,.009.993,2.064,2.064,0,0,1-1.062.929l-2.145,1Z" transform="translate(-84.201 -15.46)" fill="#002581"/>
      <path id="Path_8427" data-name="Path 8427" d="M305.887,214.348l1.69-1.913.677.023-2.081,2.353-.092,2.51-1.147-.038.087-2.358-1.973-2.64,1.353.045,1.487,2.018Z" transform="translate(-157.924 -1.234)" fill="#002581"/>
      <path id="Path_8428" data-name="Path 8428" d="M354.433,223.3,353.4,223l1.255-4.394-1.088-.313.087-.3,3.23.93-.087.3-1.105-.318-1.255,4.394Z" transform="translate(-199.331 -5.929)" fill="#002581"/>
      <path id="Path_8429" data-name="Path 8429" d="M371.588,231.982l2.433,1.316-.141.286-3.366-1.82,2.173-4.418,3.32,1.8-.141.286-2.387-1.291-.838,1.7,2.264,1.225-.141.286-2.264-1.224-.912,1.854Z" transform="translate(-213.409 -13.62)" fill="#002581"/>
      <path id="Path_8430" data-name="Path 8430" d="M399.118,232.075l.545.385-1.553.381-.3-.211,1.306-.555Z" transform="translate(-235.858 -17.51)" fill="#002581"/>
      <path id="Path_8431" data-name="Path 8431" d="M386.9,225.955l1.271-.687.517.272.182,1.451-.321-.169-.266-1.121-1.061.423-.322-.169Z" transform="translate(-226.883 -11.912)" fill="#002581"/>
      <g id="Group_84" data-name="Group 84" transform="translate(136.542 210.784)">
        <g id="Group_83" data-name="Group 83" transform="translate(0 0)">
          <path id="Path_8432" data-name="Path 8432" d="M255.334,212.394l-.21.07.419-1.291.333-.111,1.11.78-.209.07-.934-.415Zm2.572,5.241a.311.311,0,1,1,.169-.152A.287.287,0,0,1,257.906,217.635Z" transform="translate(-255.055 -211.013)" fill="#002581"/>
          <path id="Path_8433" data-name="Path 8433" d="M257.5,217.465a.354.354,0,0,1-.159-.04.327.327,0,1,1,.26.023h0A.322.322,0,0,1,257.5,217.465Zm-.006-.6a.257.257,0,0,0-.082.014.255.255,0,0,0,.161.483h0a.267.267,0,0,0,.161-.322.244.244,0,0,0-.128-.147A.251.251,0,0,0,257.491,216.867Zm-2.758-4.562.453-1.4.375-.125,1.2.844-.309.1-.913-.405-.5.876Zm.523-1.326-.385,1.186.11-.037.521-.917.954.424.11-.037-1.02-.717Z" transform="translate(-254.733 -210.784)" fill="#002581"/>
        </g>
      </g>
      <g id="Group_85" data-name="Group 85" transform="translate(135.414 211.837)">
        <path id="Path_8434" data-name="Path 8434" d="M248.448,219.844a2.228,2.228,0,0,1,.422-1.945,3.118,3.118,0,0,1,1.923-1.108,2.827,2.827,0,0,1,2.083.293,2.457,2.457,0,0,1,1.139,1.656,2.4,2.4,0,0,1-.327,1.91,2.908,2.908,0,0,1-1.962,1.217,2.964,2.964,0,0,1-2.038-.249,2.236,2.236,0,0,1-1.192-1.55Zm2.393-2.722a1.656,1.656,0,0,0-1.31,1.032,2.751,2.751,0,0,0-.061,1.632,2.475,2.475,0,0,0,.725,1.346,1.68,1.68,0,0,0,1.547.39,1.505,1.505,0,0,0,1.188-1.1,2.836,2.836,0,0,0,.06-1.515,2.747,2.747,0,0,0-.655-1.328A1.527,1.527,0,0,0,250.842,217.122Z" transform="translate(-248.383 -216.715)" fill="#002581"/>
      </g>
      <path id="Path_8435" data-name="Path 8435" d="M160.092,519.516l3.022-2.84.587.624-1.224,2.783,2.8-1.1.553.588-3.022,2.84-.535-.569,2.434-2.288-3.456,1.369,1.538-3.466-2.471,2.305-.228-.242Z" transform="translate(-40.358 -251.564)" fill="#002581"/>
      <path id="Path_8436" data-name="Path 8436" d="M180.612,539.1l-.6-.5,2.636-3.2.6.5-2.636,3.2Z" transform="translate(-56.738 -266.962)" fill="#002581"/>
      <path id="Path_8437" data-name="Path 8437" d="M187.807,543.128l-.278-.2,2.587-3.322.577.414.036,3.589,1.792-2.279.278.2-2.588,3.322-.288-.207-.037-4.165-2.079,2.648Z" transform="translate(-62.923 -270.422)" fill="#002581"/>
      <path id="Path_8438" data-name="Path 8438" d="M208.918,556.554l-.671-.4,2.125-3.562.671.4-2.125,3.562Z" transform="translate(-79.961 -281.102)" fill="#002581"/>
      <path id="Path_8439" data-name="Path 8439" d="M218.264,561.248l.372-.067a1.226,1.226,0,0,0,.18.514.931.931,0,0,0,.422.314.839.839,0,0,0,.584.026.684.684,0,0,0,.441-.378.775.775,0,0,0-.16-.887q-.367-.386-.726-.769a.988.988,0,0,1-.084-1.065,1.18,1.18,0,0,1,.734-.633,1.486,1.486,0,0,1,1.073.063,1.5,1.5,0,0,1,.624.484,1.181,1.181,0,0,1,.256.7l-.331.043a1.1,1.1,0,0,0-.124-.508.875.875,0,0,0-.438-.374.7.7,0,0,0-.568-.012.784.784,0,0,0-.4.4.7.7,0,0,0,.21.782q.355.394.718.786a1.071,1.071,0,0,1,.064,1.106,1.2,1.2,0,0,1-.786.664,1.571,1.571,0,0,1-1.081-.063,1.928,1.928,0,0,1-.681-.448,1.21,1.21,0,0,1-.3-.679Z" transform="translate(-88.199 -285.739)" fill="#002581"/>
      <path id="Path_8440" data-name="Path 8440" d="M238.714,567.473l-.782-.254,1.338-3.667-.821-.267.093-.254,2.436.792-.093.254-.833-.271-1.338,3.667Z" transform="translate(-104.374 -289.686)" fill="#002581"/>
      <path id="Path_8441" data-name="Path 8441" d="M250.893,572.471l-.8-.225,1.281-3.971,1.837.517a1.185,1.185,0,0,1,.782.594,1.155,1.155,0,0,1,.05.91.875.875,0,0,1-.532.585,1.748,1.748,0,0,1-.888.044l.53,2.174-.881-.241-.5-2.359.053.015a1.578,1.578,0,0,0,.912.036.817.817,0,0,0,.533-.565.878.878,0,0,0-.014-.666,1.042,1.042,0,0,0-.711-.5l-.433-.122-1.217,3.775Z" transform="translate(-114.374 -293.999)" fill="#002581"/>
      <path id="Path_8442" data-name="Path 8442" d="M275.532,575.441l1.217-1.572.46.033-1.5,1.933-.15,2.107-.779-.056.141-1.979-1.25-2.258.919.066.941,1.726Z" transform="translate(-133.766 -298.42)" fill="#002581"/>
      <path id="Path_8443" data-name="Path 8443" d="M301.982,576.936a2.979,2.979,0,0,0,.256,1.257,1.046,1.046,0,0,0,1.007.645,1.031,1.031,0,0,0,.979-.667,3.437,3.437,0,0,0-.045-2.528,1.061,1.061,0,0,0-1.015-.645,1.026,1.026,0,0,0-.972.667,2.946,2.946,0,0,0-.21,1.27Zm-.84.012a2.2,2.2,0,0,1,.548-1.57,1.918,1.918,0,0,1,1.469-.649,1.966,1.966,0,0,1,1.5.609,2.348,2.348,0,0,1,.069,3.113,2.059,2.059,0,0,1-2.968.046,2.218,2.218,0,0,1-.617-1.549Z" transform="translate(-156.357 -299.308)" fill="#002581"/>
      <path id="Path_8444" data-name="Path 8444" d="M328.092,577.989l-.781.023-.121-4.145,2.38-.069.008.269-1.6.047.047,1.6,1.459-.043.008.269-1.459.042.059,2.009Z" transform="translate(-177.78 -298.541)" fill="#002581"/>
      <path id="Path_8445" data-name="Path 8445" d="M351.845,570.189l-.754.2-1.074-4.006.754-.2.47,1.756,1.644-.441-.471-1.756.754-.2,1.073,4.006-.754.2-.517-1.929-1.644.441.517,1.929Z" transform="translate(-196.553 -291.75)" fill="#002581"/>
      <path id="Path_8446" data-name="Path 8446" d="M373.807,561.1l1.859-.828.109.245-2.573,1.145-1.687-3.789,2.537-1.13.109.246-1.824.812.651,1.462,1.731-.771.109.246-1.731.77.708,1.59Z" transform="translate(-214.233 -284.514)" fill="#002581"/>
      <path id="Path_8447" data-name="Path 8447" d="M394.668,553.219l-1.248-1.062.188,1.626,1.06-.564Zm1.833.563-.712.379-.9-.756-1.265.672.155,1.152-.334.175-.508-4.557,3.56,2.935Z" transform="translate(-231.853 -279.667)" fill="#002581"/>
      <path id="Path_8448" data-name="Path 8448" d="M406.536,546.449l-2,1.4-2.379-3.4.64-.448,2.188,3.125,1.363-.954.191.273Z" transform="translate(-239.43 -274.041)" fill="#002581"/>
      <path id="Path_8449" data-name="Path 8449" d="M413.96,534.472l-.626.5L410.723,532l-.657.526-.181-.206,1.951-1.563.181.206-.667.535,2.611,2.971Z" transform="translate(-245.787 -263.148)" fill="#002581"/>
      <path id="Path_8450" data-name="Path 8450" d="M425.711,519.951l-.577.6-3.172-3.062.577-.6,1.39,1.342,1.257-1.3-1.39-1.342.576-.6,3.172,3.063-.577.6-1.527-1.475-1.257,1.3,1.527,1.475Z" transform="translate(-255.72 -250.177)" fill="#002581"/>
    </g>
  </g>
</svg>
